<svg width="216" height="308" viewBox="0 0 216 308" fill="none" xmlns="http://www.w3.org/2000/svg">
<path d="M73.9926 131.264C73.9926 135.079 72.4787 138.737 69.784 141.435C67.0893 144.132 63.4345 145.648 59.6236 145.648C55.8126 145.648 52.1578 144.132 49.4631 141.435C46.7684 138.737 45.2545 135.079 45.2545 131.264V120.352C45.2545 118.951 45.2545 118.777 45.2545 118.256C45.2857 114.442 46.8295 110.795 49.5463 108.12C52.2631 105.445 55.9303 103.959 59.7412 103.99C63.5521 104.022 67.1946 105.567 69.8672 108.287C72.5399 111.006 74.0238 114.677 73.9926 118.492V131.264Z" fill="#FBB36B"/>
<path d="M147.2 131.264C147.2 135.079 148.714 138.737 151.409 141.435C154.104 144.133 157.759 145.648 161.569 145.648C165.38 145.648 169.035 144.133 171.73 141.435C174.425 138.737 175.939 135.079 175.939 131.264V118.492C175.939 114.677 174.425 111.019 171.73 108.321C169.035 105.624 165.38 104.108 161.569 104.108C157.759 104.108 154.104 105.624 151.409 108.321C148.714 111.019 147.2 114.677 147.2 118.492V131.264Z" fill="#FBB36B"/>
<path d="M197.368 218.559C180.398 198.72 134.318 193.14 110.163 192.52V192.396H105.704V192.52C81.4249 193.14 35.3448 198.844 18.4983 218.559C0.413149 239.639 0.413147 307.715 0.413147 307.715H215.577C215.33 307.591 215.33 239.639 197.368 218.559Z" fill="#2A3B8F"/>
<path d="M111.03 221.535C129.834 221.325 145.553 210.078 140.635 195.248C130.501 193.7 120.285 192.747 110.039 192.396V192.272H105.58V192.396C97.6665 192.607 89.7696 193.228 81.9204 194.256C75.5534 209.396 91.892 221.411 111.03 221.535Z" fill="#1D76BB"/>
<path d="M124.037 202.192C116.53 222.23 103.883 220.283 96.1655 202.192V178.26H124.037V202.192Z" fill="#FBB36B"/>
<path d="M64.0829 136.224C64.0829 136.224 50.0855 84.0204 47.9797 61.2045C45.8738 38.3887 45.9977 22.3928 51.9435 21.7728C55.4844 21.3937 59.0556 21.3937 62.5965 21.7728C62.5965 21.7728 73.9926 3.04888 121.435 0.3209C168.878 -2.40708 178.911 12.3488 177.549 41.1166C176.186 69.8845 160.826 128.784 159.464 133.496C158.349 138.208 64.0829 136.224 64.0829 136.224Z" fill="#3C362D"/>
<path d="M110.535 49.7966L60.3668 59.5925V144.036C60.3668 189.42 110.535 186.816 110.535 186.816C110.535 186.816 160.702 189.42 160.702 144.036V59.5925L110.535 49.7966Z" fill="#FECE8B"/>
<path d="M122.302 145.152C122.302 145.152 116.233 138.456 111.897 138.456C107.562 138.456 101.864 144.532 101.864 144.532C106.695 153.286 116.988 154.278 122.302 145.152Z" fill="#FBB36B"/>
<path d="M131.964 102.744C135.544 102.868 135.544 115.02 131.964 115.144C128.384 115.02 128.384 102.868 131.964 102.744Z" fill="#3C362D"/>
<path d="M93.1926 108.944C93.0935 117.128 87.8414 117.128 87.7423 108.944C87.8414 100.76 93.0935 100.76 93.1926 108.944Z" fill="#3C362D"/>
<path d="M139.768 93.0723C139.768 93.0723 136.3 86.2524 132.584 86.6244C128.62 86.3764 125.027 92.4523 125.027 92.5763C124.779 93.0514 124.354 93.4091 123.843 93.5716C123.333 93.7342 122.779 93.6884 122.302 93.4443C121.828 93.1958 121.47 92.7698 121.308 92.2589C121.146 91.748 121.191 91.1936 121.435 90.7163C121.559 90.5923 125.151 82.9044 132.584 82.6564C140.14 83.0284 143.237 91.4603 143.484 91.5843C143.599 91.8191 143.664 92.0748 143.675 92.3357C143.687 92.5966 143.645 92.8572 143.552 93.1012C143.46 93.3453 143.318 93.5677 143.135 93.7547C142.953 93.9417 142.735 94.0892 142.493 94.1883C142.259 94.2893 142.004 94.3319 141.75 94.3123C141.332 94.3387 140.916 94.2334 140.56 94.011C140.205 93.7886 139.928 93.4603 139.768 93.0723Z" fill="#3C362D"/>
<path d="M98.3952 93.0723C98.3952 93.0723 94.9268 86.2524 91.2107 86.6244C87.2468 86.3764 83.6546 92.4523 83.6546 92.5763C83.4063 93.0514 82.9808 93.4091 82.4704 93.5716C81.96 93.7342 81.4062 93.6884 80.9294 93.4443C80.4548 93.1958 80.0975 92.7698 79.9351 92.2589C79.7727 91.748 79.8184 91.1936 80.0623 90.7163C80.1862 90.5923 83.7784 82.9044 91.2107 82.6564C98.7668 83.0284 101.864 91.4603 102.111 91.5843C102.226 91.8191 102.291 92.0748 102.303 92.3357C102.314 92.5966 102.272 92.8572 102.179 93.1012C102.087 93.3453 101.945 93.5677 101.762 93.7547C101.58 93.9416 101.362 94.0892 101.12 94.1883C100.886 94.2893 100.631 94.3318 100.377 94.3123C99.954 94.3712 99.5236 94.2793 99.1612 94.0526C98.7989 93.8259 98.5278 93.4789 98.3952 93.0723Z" fill="#3C362D"/>
<path d="M89.6004 162.76C89.5343 162.646 89.4914 162.52 89.4744 162.39C89.4573 162.259 89.4663 162.127 89.5009 162C89.5354 161.873 89.5949 161.754 89.6758 161.651C89.7567 161.547 89.8574 161.46 89.972 161.396C90.0856 161.33 90.2112 161.287 90.3415 161.27C90.4719 161.253 90.6043 161.262 90.7311 161.296C90.8579 161.331 90.9766 161.39 91.0802 161.471C91.1838 161.552 91.2703 161.653 91.3346 161.768C91.4584 161.768 96.661 170.696 112.269 170.696C127.877 170.696 133.822 160.156 133.822 160.156C133.887 160.041 133.973 159.94 134.077 159.859C134.18 159.778 134.299 159.719 134.426 159.684C134.553 159.65 134.685 159.641 134.815 159.658C134.946 159.675 135.071 159.718 135.185 159.784C135.3 159.848 135.4 159.935 135.481 160.039C135.562 160.142 135.621 160.261 135.656 160.388C135.691 160.515 135.7 160.647 135.683 160.778C135.666 160.908 135.623 161.034 135.557 161.148C135.433 161.272 128.868 172.68 112.269 172.68C95.6701 172.68 89.7243 163.008 89.6004 162.76Z" fill="#3C362D"/>
</svg>
