<svg xmlns="http://www.w3.org/2000/svg" viewBox="0 0 756.21 360.77"><title>logo</title><g fill="#fff" id="Layer_2" data-name="Layer 2"><g id="Layer_1-2" data-name="Layer 1"><path d="M287.43,122.08c-.9-37.7,23.95-78.77,73.86-122.08,4.59.69,31.06,5.49,55.22,27.56l1.64,1.51c-38.45,29.8-70.7,67.85-79.85,81.37-13.15,19.41-23.18,38.59-28,64.47A77.06,77.06,0,0,1,287.43,122.08Z"/><path d="M391.32,305.77a237.43,237.43,0,0,0,33.16,7.67l0,.05c-21.85,32.88-34.05,45-36.37,47.23-61.64,1.95-108.33-57.09-112-61.92-2-13.36,20.09-43.05,25.82-50.48,14.18,19.22,34.86,35,61.51,47,.28.15.58.28.87.4l.88.39a227.73,227.73,0,0,0,21.69,8.23C388.33,304.85,389.83,305.33,391.32,305.77Z"/><path d="M443.26,287.57q-2.67,3.92-5.56,8a242.32,242.32,0,0,1-31.37-7.38c-1.48-.45-3-.93-4.5-1.42a229.79,229.79,0,0,1-21.69-8.23l-.87-.39a6.26,6.26,0,0,1-.87-.4l-.76-.34c5.71-10.67,10.72-21.32,14.8-30.63l1,.68c3.4,2.18,6.64,4.33,9.76,6.43l4.42,3.06c5,3.49,9.61,6.88,13.77,10.15,1.75,1.37,3.44,2.7,5,4l1.69,1.42c1,.89,2,1.76,3,2.63.5.43,1,.86,1.44,1.29,2.08,1.88,3.95,3.71,5.65,5.47.41.43.81.84,1.21,1.27.77.83,1.48,1.61,2.15,2.41S442.73,286.91,443.26,287.57Z"/><path d="M465,82.09c-4.78,26.13-24.05,32.48-26.61,33.21-15.54-1.37-34.24-17.67-47.77-31.86,15.26-18.75,24.92-28.26,43.76-40.89C454.62,61.74,463.59,79.12,465,82.09Z"/><path d="M480.3,211a18,18,0,0,1-.27,3.18c-3.41,20.16-20.2,47.74-25,55.32-.71-.91-5.28-6.07-5.69-6.5-1.7-1.77-11.21-10.33-11.79-10.81-1.58-1.32-3.26-2.66-5-4-4.16-3.27-24.92-18-34.41-23.77-25.13-15.41-51.84-30-68.55-38.65,2.73-21.63,11.57-42.88,23.82-56.76,13.08,10.18,33,22.39,62.18,33.27,34.05,12.66,51.77,27.58,59.3,35.34A19.3,19.3,0,0,1,480.3,211Z"/><path d="M218.63,82.78s15.22,34.84,0,58.57c-14,21.86-113.62,18.12-154,10.48C29.71,145.23,1.22,95.3,0,83.19,0,83.19,80,74.53,218.63,82.78Z"/><path d="M220.81,178.9s10.32,27.88,0,46.87c-9.51,17.49-77,14.5-104.43,8.38-23.64-5.28-42.95-45.23-43.78-54.92C72.6,179.23,126.85,172.3,220.81,178.9Z"/><path d="M222.66,260.6s6.14,21.55,0,36.23c-5.65,13.53-45.81,11.22-62.11,6.48-14.07-4.08-25.56-35-26.05-42.46C134.5,260.85,166.77,255.49,222.66,260.6Z"/><path d="M537.59,81.64s-15.23,34.84,0,58.58c14,21.86,113.62,18.12,154,10.47,34.88-6.6,63.36-56.53,64.58-68.64C756.21,82.05,676.19,73.39,537.59,81.64Z"/><path d="M535.41,177.76s-10.32,27.88,0,46.87c9.51,17.5,77,14.51,104.42,8.39,23.65-5.28,43-45.24,43.78-54.93C683.61,178.09,629.36,171.16,535.41,177.76Z"/><path d="M533.55,259.46s-6.14,21.56,0,36.24c5.65,13.52,45.82,11.21,62.12,6.48,14.06-4.08,25.55-35,26-42.46C621.71,259.72,589.44,254.36,533.55,259.46Z"/></g></g></svg>